<mxfile host="app.diagrams.net" agent="Mozilla/5.0 (Macintosh; Intel Mac OS X 10_15_7) AppleWebKit/537.36 (KHTML, like Gecko) Chrome/127.0.0.0 Safari/537.36" version="24.7.7">
  <diagram name="Page-1" id="1MfnKj5qdLETpIkCme2C">
    <mxGraphModel grid="1" page="1" gridSize="10" guides="1" tooltips="1" connect="1" arrows="1" fold="1" pageScale="1" pageWidth="850" pageHeight="1100" math="0" shadow="0">
      <root>
        <mxCell id="0" />
        <mxCell id="1" parent="0" />
        <mxCell id="sVdFzXjt8eiHYZyScWWw-2" value="" style="rounded=0;whiteSpace=wrap;html=1;" vertex="1" parent="1">
          <mxGeometry x="80" y="120" width="640" height="360" as="geometry" />
        </mxCell>
        <mxCell id="sVdFzXjt8eiHYZyScWWw-4" value="&amp;nbsp; Email Address" style="rounded=0;whiteSpace=wrap;html=1;align=left;" vertex="1" parent="1">
          <mxGeometry x="300" y="250" width="200" height="20" as="geometry" />
        </mxCell>
        <mxCell id="sVdFzXjt8eiHYZyScWWw-5" value="&amp;nbsp; Password" style="rounded=0;whiteSpace=wrap;html=1;align=left;" vertex="1" parent="1">
          <mxGeometry x="300" y="290" width="200" height="20" as="geometry" />
        </mxCell>
        <mxCell id="sVdFzXjt8eiHYZyScWWw-6" value="Sign In" style="rounded=0;whiteSpace=wrap;html=1;align=center;fillColor=#000000;fontColor=#FFFFFF;" vertex="1" parent="1">
          <mxGeometry x="300" y="330" width="200" height="20" as="geometry" />
        </mxCell>
        <mxCell id="sVdFzXjt8eiHYZyScWWw-7" value="" style="endArrow=none;html=1;rounded=0;" edge="1" parent="1">
          <mxGeometry width="50" height="50" relative="1" as="geometry">
            <mxPoint x="500" y="370" as="sourcePoint" />
            <mxPoint x="300" y="370" as="targetPoint" />
          </mxGeometry>
        </mxCell>
        <mxCell id="sVdFzXjt8eiHYZyScWWw-10" value="Create Account" style="rounded=0;whiteSpace=wrap;html=1;align=center;fillColor=#000000;fontColor=#FFFFFF;" vertex="1" parent="1">
          <mxGeometry x="300" y="390" width="200" height="20" as="geometry" />
        </mxCell>
        <mxCell id="sVdFzXjt8eiHYZyScWWw-11" value="&lt;font style=&quot;font-size: 16px;&quot;&gt;Revature University&amp;nbsp;&lt;/font&gt;&lt;span style=&quot;font-size: 16px; background-color: initial;&quot;&gt;Course Registration&lt;/span&gt;" style="text;html=1;align=center;verticalAlign=middle;whiteSpace=wrap;rounded=0;" vertex="1" parent="1">
          <mxGeometry x="200" y="170" width="400" height="60" as="geometry" />
        </mxCell>
        <mxCell id="sVdFzXjt8eiHYZyScWWw-12" value="&lt;font style=&quot;font-size: 16px;&quot;&gt;1. Sign In&lt;/font&gt;" style="text;html=1;align=center;verticalAlign=middle;whiteSpace=wrap;rounded=0;" vertex="1" parent="1">
          <mxGeometry x="300" y="80" width="200" height="40" as="geometry" />
        </mxCell>
        <mxCell id="azrJAw1ta6dm7eM0ARKH-1" value="" style="rounded=0;whiteSpace=wrap;html=1;" vertex="1" parent="1">
          <mxGeometry x="80" y="560" width="640" height="360" as="geometry" />
        </mxCell>
        <mxCell id="azrJAw1ta6dm7eM0ARKH-2" value="&amp;nbsp; Email Address" style="rounded=0;whiteSpace=wrap;html=1;align=left;" vertex="1" parent="1">
          <mxGeometry x="300" y="690" width="200" height="20" as="geometry" />
        </mxCell>
        <mxCell id="azrJAw1ta6dm7eM0ARKH-3" value="&amp;nbsp; Password" style="rounded=0;whiteSpace=wrap;html=1;align=left;" vertex="1" parent="1">
          <mxGeometry x="300" y="730" width="200" height="20" as="geometry" />
        </mxCell>
        <mxCell id="azrJAw1ta6dm7eM0ARKH-4" value="Sign In" style="rounded=0;whiteSpace=wrap;html=1;align=center;fillColor=#000000;fontColor=#FFFFFF;" vertex="1" parent="1">
          <mxGeometry x="300" y="770" width="200" height="20" as="geometry" />
        </mxCell>
        <mxCell id="azrJAw1ta6dm7eM0ARKH-5" value="" style="endArrow=none;html=1;rounded=0;" edge="1" parent="1">
          <mxGeometry width="50" height="50" relative="1" as="geometry">
            <mxPoint x="500" y="810" as="sourcePoint" />
            <mxPoint x="300" y="810" as="targetPoint" />
          </mxGeometry>
        </mxCell>
        <mxCell id="azrJAw1ta6dm7eM0ARKH-6" value="Create Account" style="rounded=0;whiteSpace=wrap;html=1;align=center;fillColor=#000000;fontColor=#FFFFFF;" vertex="1" parent="1">
          <mxGeometry x="300" y="830" width="200" height="20" as="geometry" />
        </mxCell>
        <mxCell id="azrJAw1ta6dm7eM0ARKH-8" value="&lt;font style=&quot;font-size: 16px;&quot;&gt;2. Sign Up&lt;/font&gt;" style="text;html=1;align=center;verticalAlign=middle;whiteSpace=wrap;rounded=0;" vertex="1" parent="1">
          <mxGeometry x="300" y="520" width="200" height="40" as="geometry" />
        </mxCell>
        <mxCell id="azrJAw1ta6dm7eM0ARKH-10" value="&lt;span style=&quot;font-size: 16px;&quot;&gt;Create a Revature University Account&lt;/span&gt;" style="text;html=1;align=center;verticalAlign=middle;whiteSpace=wrap;rounded=0;" vertex="1" parent="1">
          <mxGeometry x="200" y="610" width="400" height="60" as="geometry" />
        </mxCell>
        <mxCell id="azrJAw1ta6dm7eM0ARKH-11" value="" style="endArrow=none;html=1;rounded=0;" edge="1" parent="1">
          <mxGeometry width="50" height="50" relative="1" as="geometry">
            <mxPoint x="500" y="1250" as="sourcePoint" />
            <mxPoint x="300" y="1250" as="targetPoint" />
          </mxGeometry>
        </mxCell>
        <mxCell id="azrJAw1ta6dm7eM0ARKH-12" value="" style="rounded=0;whiteSpace=wrap;html=1;" vertex="1" parent="1">
          <mxGeometry x="80" y="1000" width="640" height="360" as="geometry" />
        </mxCell>
        <mxCell id="azrJAw1ta6dm7eM0ARKH-17" value="&lt;font style=&quot;font-size: 16px;&quot;&gt;3. My Courses&lt;/font&gt;" style="text;html=1;align=center;verticalAlign=middle;whiteSpace=wrap;rounded=0;" vertex="1" parent="1">
          <mxGeometry x="300" y="960" width="200" height="40" as="geometry" />
        </mxCell>
        <mxCell id="azrJAw1ta6dm7eM0ARKH-19" value="My Courses" style="text;html=1;align=center;verticalAlign=middle;whiteSpace=wrap;rounded=0;" vertex="1" parent="1">
          <mxGeometry x="640" y="1000" width="80" height="40" as="geometry" />
        </mxCell>
        <mxCell id="azrJAw1ta6dm7eM0ARKH-20" value="Register" style="text;html=1;align=center;verticalAlign=middle;whiteSpace=wrap;rounded=0;" vertex="1" parent="1">
          <mxGeometry x="560" y="1000" width="80" height="40" as="geometry" />
        </mxCell>
        <mxCell id="azrJAw1ta6dm7eM0ARKH-41" value="&lt;font style=&quot;font-size: 16px;&quot;&gt;My Course&lt;/font&gt;" style="text;html=1;align=center;verticalAlign=middle;whiteSpace=wrap;rounded=0;" vertex="1" parent="1">
          <mxGeometry x="340" y="1040" width="120" height="40" as="geometry" />
        </mxCell>
        <mxCell id="azrJAw1ta6dm7eM0ARKH-55" value="&amp;nbsp; Course No.&lt;span style=&quot;white-space: pre;&quot;&gt;&#x9;&lt;/span&gt;&lt;span style=&quot;white-space: pre;&quot;&gt;&#x9;&lt;/span&gt;&lt;span style=&quot;white-space: pre;&quot;&gt;&#x9;&lt;span style=&quot;white-space: pre;&quot;&gt;&#x9;&lt;/span&gt;&lt;/span&gt;Course Name&lt;span style=&quot;white-space: pre;&quot;&gt;&#x9;&lt;/span&gt;&lt;span style=&quot;white-space: pre;&quot;&gt;&#x9;&lt;/span&gt;&lt;span style=&quot;white-space: pre;&quot;&gt;&#x9;&lt;span style=&quot;white-space: pre;&quot;&gt;&#x9;&lt;/span&gt;Times&lt;/span&gt;" style="rounded=0;whiteSpace=wrap;html=1;fillColor=#BDBDBD;align=left;" vertex="1" parent="1">
          <mxGeometry x="190" y="1100" width="420" height="40" as="geometry" />
        </mxCell>
        <mxCell id="azrJAw1ta6dm7eM0ARKH-56" value="&amp;nbsp; 1001&lt;span style=&quot;white-space: pre;&quot;&gt;&#x9;&lt;/span&gt;&lt;span style=&quot;white-space: pre;&quot;&gt;&#x9;&lt;/span&gt;&lt;span style=&quot;white-space: pre;&quot;&gt;&#x9;&lt;/span&gt;&lt;span style=&quot;white-space: pre;&quot;&gt;&#x9;&lt;/span&gt;&lt;span style=&quot;white-space: pre;&quot;&gt;&#x9;&lt;/span&gt;Home Invasion&lt;span style=&quot;white-space: pre;&quot;&gt;&#x9;&lt;/span&gt;&lt;span style=&quot;white-space: pre;&quot;&gt;&#x9;&lt;/span&gt;&lt;span style=&quot;white-space: pre;&quot;&gt;&#x9;&lt;/span&gt;Mon. Thur. 3pm" style="rounded=0;whiteSpace=wrap;html=1;align=left;" vertex="1" parent="1">
          <mxGeometry x="190" y="1140" width="420" height="40" as="geometry" />
        </mxCell>
        <mxCell id="azrJAw1ta6dm7eM0ARKH-57" value="&amp;nbsp; 1001&lt;span style=&quot;white-space: pre;&quot;&gt;&#x9;&lt;/span&gt;&lt;span style=&quot;white-space: pre;&quot;&gt;&#x9;&lt;/span&gt;&lt;span style=&quot;white-space: pre;&quot;&gt;&#x9;&lt;/span&gt;&lt;span style=&quot;white-space: pre;&quot;&gt;&#x9;&lt;/span&gt;&lt;span style=&quot;white-space: pre;&quot;&gt;&#x9;&lt;/span&gt;Home Invasion&lt;span style=&quot;white-space: pre;&quot;&gt;&#x9;&lt;/span&gt;&lt;span style=&quot;white-space: pre;&quot;&gt;&#x9;&lt;/span&gt;&lt;span style=&quot;white-space: pre;&quot;&gt;&#x9;&lt;/span&gt;Mon. Thur. 3pm" style="rounded=0;whiteSpace=wrap;html=1;align=left;" vertex="1" parent="1">
          <mxGeometry x="190" y="1180" width="420" height="40" as="geometry" />
        </mxCell>
        <mxCell id="azrJAw1ta6dm7eM0ARKH-58" value="&amp;nbsp; 1001&lt;span style=&quot;white-space: pre;&quot;&gt;&#x9;&lt;/span&gt;&lt;span style=&quot;white-space: pre;&quot;&gt;&#x9;&lt;/span&gt;&lt;span style=&quot;white-space: pre;&quot;&gt;&#x9;&lt;/span&gt;&lt;span style=&quot;white-space: pre;&quot;&gt;&#x9;&lt;/span&gt;&lt;span style=&quot;white-space: pre;&quot;&gt;&#x9;&lt;/span&gt;Home Invasion&lt;span style=&quot;white-space: pre;&quot;&gt;&#x9;&lt;/span&gt;&lt;span style=&quot;white-space: pre;&quot;&gt;&#x9;&lt;/span&gt;&lt;span style=&quot;white-space: pre;&quot;&gt;&#x9;&lt;/span&gt;Mon. Thur. 3pm" style="rounded=0;whiteSpace=wrap;html=1;align=left;" vertex="1" parent="1">
          <mxGeometry x="190" y="1220" width="420" height="40" as="geometry" />
        </mxCell>
        <mxCell id="azrJAw1ta6dm7eM0ARKH-59" value="&amp;nbsp; 1001&lt;span style=&quot;white-space: pre;&quot;&gt;&#x9;&lt;/span&gt;&lt;span style=&quot;white-space: pre;&quot;&gt;&#x9;&lt;/span&gt;&lt;span style=&quot;white-space: pre;&quot;&gt;&#x9;&lt;/span&gt;&lt;span style=&quot;white-space: pre;&quot;&gt;&#x9;&lt;/span&gt;&lt;span style=&quot;white-space: pre;&quot;&gt;&#x9;&lt;/span&gt;Home Invasion&lt;span style=&quot;white-space: pre;&quot;&gt;&#x9;&lt;/span&gt;&lt;span style=&quot;white-space: pre;&quot;&gt;&#x9;&lt;/span&gt;&lt;span style=&quot;white-space: pre;&quot;&gt;&#x9;&lt;/span&gt;Mon. Thur. 3pm" style="rounded=0;whiteSpace=wrap;html=1;align=left;" vertex="1" parent="1">
          <mxGeometry x="190" y="1260" width="420" height="40" as="geometry" />
        </mxCell>
        <mxCell id="azrJAw1ta6dm7eM0ARKH-61" value="" style="endArrow=none;html=1;rounded=0;" edge="1" parent="1">
          <mxGeometry width="50" height="50" relative="1" as="geometry">
            <mxPoint x="500" y="1670" as="sourcePoint" />
            <mxPoint x="300" y="1670" as="targetPoint" />
          </mxGeometry>
        </mxCell>
        <mxCell id="azrJAw1ta6dm7eM0ARKH-62" value="" style="rounded=0;whiteSpace=wrap;html=1;" vertex="1" parent="1">
          <mxGeometry x="80" y="1440" width="640" height="360" as="geometry" />
        </mxCell>
        <mxCell id="azrJAw1ta6dm7eM0ARKH-63" value="&lt;font style=&quot;font-size: 16px;&quot;&gt;4. Register&lt;/font&gt;" style="text;html=1;align=center;verticalAlign=middle;whiteSpace=wrap;rounded=0;" vertex="1" parent="1">
          <mxGeometry x="300" y="1400" width="200" height="40" as="geometry" />
        </mxCell>
        <mxCell id="azrJAw1ta6dm7eM0ARKH-64" value="My Courses" style="text;html=1;align=center;verticalAlign=middle;whiteSpace=wrap;rounded=0;" vertex="1" parent="1">
          <mxGeometry x="640" y="1440" width="80" height="40" as="geometry" />
        </mxCell>
        <mxCell id="azrJAw1ta6dm7eM0ARKH-65" value="Register" style="text;html=1;align=center;verticalAlign=middle;whiteSpace=wrap;rounded=0;" vertex="1" parent="1">
          <mxGeometry x="560" y="1440" width="80" height="40" as="geometry" />
        </mxCell>
        <mxCell id="azrJAw1ta6dm7eM0ARKH-66" value="&lt;font style=&quot;font-size: 16px;&quot;&gt;Register a Course&lt;/font&gt;" style="text;html=1;align=center;verticalAlign=middle;whiteSpace=wrap;rounded=0;" vertex="1" parent="1">
          <mxGeometry x="300" y="1480" width="200" height="40" as="geometry" />
        </mxCell>
        <mxCell id="azrJAw1ta6dm7eM0ARKH-67" value="&amp;nbsp; Course No.&lt;span style=&quot;white-space: pre;&quot;&gt;&#x9;&lt;/span&gt;&lt;span style=&quot;white-space: pre;&quot;&gt;&#x9;&lt;span style=&quot;white-space: pre;&quot;&gt;&#x9;&lt;/span&gt;&lt;/span&gt;Course Name&lt;span style=&quot;white-space: pre;&quot;&gt;&#x9;&lt;/span&gt;&lt;span style=&quot;white-space: pre;&quot;&gt;&#x9;&lt;/span&gt;&lt;span style=&quot;white-space: pre;&quot;&gt;&#x9;Times&lt;span style=&quot;white-space: pre;&quot;&gt;&#x9;&lt;/span&gt;&lt;span style=&quot;white-space: pre;&quot;&gt;&#x9;&lt;/span&gt;&lt;/span&gt;" style="rounded=0;whiteSpace=wrap;html=1;fillColor=#BDBDBD;align=left;" vertex="1" parent="1">
          <mxGeometry x="190" y="1560" width="420" height="40" as="geometry" />
        </mxCell>
        <mxCell id="azrJAw1ta6dm7eM0ARKH-69" value="&amp;nbsp; 1001&lt;span style=&quot;white-space: pre;&quot;&gt;&#x9;&lt;/span&gt;&lt;span style=&quot;white-space: pre;&quot;&gt;&#x9;&lt;/span&gt;&lt;span style=&quot;white-space: pre;&quot;&gt;&#x9;&lt;/span&gt;&lt;span style=&quot;white-space: pre;&quot;&gt;&#x9;&lt;/span&gt;Home Invasion&lt;span style=&quot;white-space: pre;&quot;&gt;&#x9;&lt;/span&gt;&lt;span style=&quot;white-space: pre;&quot;&gt;&#x9;&lt;/span&gt;Mon. Thur. 3pm" style="rounded=0;whiteSpace=wrap;html=1;align=left;" vertex="1" parent="1">
          <mxGeometry x="190" y="1600" width="420" height="40" as="geometry" />
        </mxCell>
        <mxCell id="azrJAw1ta6dm7eM0ARKH-70" value="&amp;nbsp; 1001&lt;span style=&quot;white-space: pre;&quot;&gt;&#x9;&lt;/span&gt;&lt;span style=&quot;white-space: pre;&quot;&gt;&#x9;&lt;/span&gt;&lt;span style=&quot;white-space: pre;&quot;&gt;&#x9;&lt;/span&gt;&lt;span style=&quot;white-space: pre;&quot;&gt;&#x9;&lt;/span&gt;Home Invasion&lt;span style=&quot;white-space: pre;&quot;&gt;&#x9;&lt;/span&gt;&lt;span style=&quot;white-space: pre;&quot;&gt;&#x9;&lt;/span&gt;Mon. Thur. 3pm" style="rounded=0;whiteSpace=wrap;html=1;align=left;" vertex="1" parent="1">
          <mxGeometry x="190" y="1640" width="420" height="40" as="geometry" />
        </mxCell>
        <mxCell id="azrJAw1ta6dm7eM0ARKH-71" value="&amp;nbsp; 1001&lt;span style=&quot;white-space: pre;&quot;&gt;&#x9;&lt;/span&gt;&lt;span style=&quot;white-space: pre;&quot;&gt;&#x9;&lt;/span&gt;&lt;span style=&quot;white-space: pre;&quot;&gt;&#x9;&lt;/span&gt;&lt;span style=&quot;white-space: pre;&quot;&gt;&#x9;&lt;/span&gt;Home Invasion&lt;span style=&quot;white-space: pre;&quot;&gt;&#x9;&lt;/span&gt;&lt;span style=&quot;white-space: pre;&quot;&gt;&#x9;&lt;/span&gt;Mon. Thur. 3pm" style="rounded=0;whiteSpace=wrap;html=1;align=left;" vertex="1" parent="1">
          <mxGeometry x="190" y="1680" width="420" height="40" as="geometry" />
        </mxCell>
        <mxCell id="azrJAw1ta6dm7eM0ARKH-73" value="&amp;nbsp;&amp;nbsp;" style="rounded=0;whiteSpace=wrap;html=1;align=left;" vertex="1" parent="1">
          <mxGeometry x="190" y="1520" width="420" height="40" as="geometry" />
        </mxCell>
        <mxCell id="azrJAw1ta6dm7eM0ARKH-74" value="" style="rounded=0;whiteSpace=wrap;html=1;" vertex="1" parent="1">
          <mxGeometry x="240" y="1530" width="200" height="20" as="geometry" />
        </mxCell>
        <mxCell id="azrJAw1ta6dm7eM0ARKH-76" value="Search:" style="text;strokeColor=none;fillColor=none;align=left;verticalAlign=middle;spacingLeft=4;spacingRight=4;overflow=hidden;points=[[0,0.5],[1,0.5]];portConstraint=eastwest;rotatable=0;whiteSpace=wrap;html=1;" vertex="1" parent="1">
          <mxGeometry x="190" y="1520" width="80" height="40" as="geometry" />
        </mxCell>
        <mxCell id="azrJAw1ta6dm7eM0ARKH-77" value="Category:" style="text;strokeColor=none;fillColor=none;align=left;verticalAlign=middle;spacingLeft=4;spacingRight=4;overflow=hidden;points=[[0,0.5],[1,0.5]];portConstraint=eastwest;rotatable=0;whiteSpace=wrap;html=1;" vertex="1" parent="1">
          <mxGeometry x="450" y="1520" width="80" height="40" as="geometry" />
        </mxCell>
        <mxCell id="azrJAw1ta6dm7eM0ARKH-78" value="" style="rounded=0;whiteSpace=wrap;html=1;fontColor=#FCFCFC;" vertex="1" parent="1">
          <mxGeometry x="510" y="1530" width="90" height="20" as="geometry" />
        </mxCell>
        <mxCell id="azrJAw1ta6dm7eM0ARKH-79" value="" style="triangle;whiteSpace=wrap;html=1;rotation=90;fillColor=#BABABA;" vertex="1" parent="1">
          <mxGeometry x="585" y="1534" width="10" height="12" as="geometry" />
        </mxCell>
        <mxCell id="azrJAw1ta6dm7eM0ARKH-82" value="Register" style="rounded=0;whiteSpace=wrap;html=1;fillColor=#BABABA;" vertex="1" parent="1">
          <mxGeometry x="540" y="1730" width="70" height="25.63" as="geometry" />
        </mxCell>
        <mxCell id="azrJAw1ta6dm7eM0ARKH-83" value="" style="rounded=0;whiteSpace=wrap;html=1;" vertex="1" parent="1">
          <mxGeometry x="580" y="1610" width="20" height="20" as="geometry" />
        </mxCell>
        <mxCell id="azrJAw1ta6dm7eM0ARKH-84" value="" style="rounded=0;whiteSpace=wrap;html=1;" vertex="1" parent="1">
          <mxGeometry x="580" y="1690" width="20" height="20" as="geometry" />
        </mxCell>
        <mxCell id="azrJAw1ta6dm7eM0ARKH-85" value="" style="rounded=0;whiteSpace=wrap;html=1;" vertex="1" parent="1">
          <mxGeometry x="580" y="1650" width="20" height="20" as="geometry" />
        </mxCell>
        <mxCell id="azrJAw1ta6dm7eM0ARKH-86" value="" style="verticalLabelPosition=bottom;verticalAlign=top;html=1;shape=mxgraph.basic.tick;fillColor=#000000;" vertex="1" parent="1">
          <mxGeometry x="580" y="1612" width="20" height="16" as="geometry" />
        </mxCell>
        <mxCell id="azrJAw1ta6dm7eM0ARKH-89" value="" style="rounded=0;whiteSpace=wrap;html=1;" vertex="1" parent="1">
          <mxGeometry x="80" y="1880" width="640" height="360" as="geometry" />
        </mxCell>
        <mxCell id="azrJAw1ta6dm7eM0ARKH-90" value="&lt;font style=&quot;font-size: 16px;&quot;&gt;5. Course Description&lt;/font&gt;" style="text;html=1;align=center;verticalAlign=middle;whiteSpace=wrap;rounded=0;" vertex="1" parent="1">
          <mxGeometry x="300" y="1840" width="200" height="40" as="geometry" />
        </mxCell>
        <mxCell id="azrJAw1ta6dm7eM0ARKH-109" value="&lt;div style=&quot;font-size: 16px;&quot;&gt;&lt;font style=&quot;font-size: 16px;&quot;&gt;&lt;br&gt;&lt;/font&gt;&lt;/div&gt;&lt;div style=&quot;font-size: 16px;&quot;&gt;&lt;span style=&quot;white-space: pre;&quot;&gt;&lt;font style=&quot;font-size: 16px;&quot;&gt;&#x9;&lt;b&gt;1001  Home Invasion&lt;/b&gt;&lt;/font&gt;&lt;/span&gt;&lt;br&gt;&lt;/div&gt;&lt;div style=&quot;font-size: 16px;&quot;&gt;&lt;span style=&quot;white-space: pre;&quot;&gt;&lt;font style=&quot;font-size: 16px;&quot;&gt;&lt;br&gt;&lt;/font&gt;&lt;/span&gt;&lt;/div&gt;&lt;div style=&quot;font-size: 16px;&quot;&gt;&lt;span style=&quot;white-space: pre;&quot;&gt;&lt;font style=&quot;font-size: 16px;&quot;&gt;&lt;span style=&quot;white-space: pre;&quot;&gt;&#x9;&lt;/span&gt;This is a great course that teach you &lt;br&gt;&lt;/font&gt;&lt;/span&gt;&lt;/div&gt;&lt;div style=&quot;font-size: 16px;&quot;&gt;&lt;span style=&quot;white-space: pre;&quot;&gt;&lt;font style=&quot;font-size: 16px;&quot;&gt;&lt;span style=&quot;white-space: pre;&quot;&gt;&#x9;&lt;/span&gt; the attack and defense of home &lt;br&gt;&lt;/font&gt;&lt;/span&gt;&lt;/div&gt;&lt;div style=&quot;font-size: 16px;&quot;&gt;&lt;span style=&quot;white-space: pre;&quot;&gt;&#x9;&lt;/span&gt;&amp;nbsp;invasion.&lt;br&gt;&lt;/div&gt;" style="rounded=0;whiteSpace=wrap;html=1;align=left;horizontal=1;verticalAlign=top;" vertex="1" parent="1">
          <mxGeometry x="255" y="1970" width="325" height="160" as="geometry" />
        </mxCell>
        <mxCell id="azrJAw1ta6dm7eM0ARKH-110" value="X" style="text;html=1;align=center;verticalAlign=middle;whiteSpace=wrap;rounded=0;" vertex="1" parent="1">
          <mxGeometry x="530" y="1970" width="40" height="40" as="geometry" />
        </mxCell>
        <mxCell id="azrJAw1ta6dm7eM0ARKH-112" style="edgeStyle=orthogonalEdgeStyle;rounded=0;orthogonalLoop=1;jettySize=auto;html=1;exitX=1;exitY=0.5;exitDx=0;exitDy=0;entryX=1;entryY=0.5;entryDx=0;entryDy=0;dashed=1;" edge="1" parent="1" source="azrJAw1ta6dm7eM0ARKH-69" target="azrJAw1ta6dm7eM0ARKH-109">
          <mxGeometry relative="1" as="geometry">
            <Array as="points">
              <mxPoint x="850" y="1620" />
              <mxPoint x="850" y="2050" />
            </Array>
          </mxGeometry>
        </mxCell>
        <mxCell id="azrJAw1ta6dm7eM0ARKH-114" style="edgeStyle=orthogonalEdgeStyle;rounded=0;orthogonalLoop=1;jettySize=auto;html=1;dashed=1;exitX=1;exitY=0.5;exitDx=0;exitDy=0;endArrow=none;endFill=0;" edge="1" parent="1" source="azrJAw1ta6dm7eM0ARKH-56">
          <mxGeometry relative="1" as="geometry">
            <mxPoint x="780" y="1120" as="sourcePoint" />
            <mxPoint x="850" y="1620" as="targetPoint" />
            <Array as="points">
              <mxPoint x="850" y="1160" />
            </Array>
          </mxGeometry>
        </mxCell>
        <mxCell id="azrJAw1ta6dm7eM0ARKH-115" value="Click to Open" style="text;html=1;align=center;verticalAlign=middle;whiteSpace=wrap;rounded=0;" vertex="1" parent="1">
          <mxGeometry x="760" y="1590" width="80" height="30" as="geometry" />
        </mxCell>
        <mxCell id="azrJAw1ta6dm7eM0ARKH-116" value="Click to Open" style="text;html=1;align=center;verticalAlign=middle;whiteSpace=wrap;rounded=0;" vertex="1" parent="1">
          <mxGeometry x="760" y="1130" width="80" height="30" as="geometry" />
        </mxCell>
        <mxCell id="azrJAw1ta6dm7eM0ARKH-117" value="Register" style="text;html=1;align=center;verticalAlign=middle;whiteSpace=wrap;rounded=0;" vertex="1" parent="1">
          <mxGeometry x="560" y="1880" width="80" height="40" as="geometry" />
        </mxCell>
        <mxCell id="azrJAw1ta6dm7eM0ARKH-118" value="My Courses" style="text;html=1;align=center;verticalAlign=middle;whiteSpace=wrap;rounded=0;" vertex="1" parent="1">
          <mxGeometry x="640" y="1880" width="80" height="40" as="geometry" />
        </mxCell>
      </root>
    </mxGraphModel>
  </diagram>
</mxfile>
